<svg xmlns="http://www.w3.org/2000/svg" xmlns:xlink="http://www.w3.org/1999/xlink" width="900" zoomAndPan="magnify" viewBox="0 0 675 225" height="300" preserveAspectRatio="xMidYMid meet" version="1.0"><defs><g/><clipPath id="id1"><path d="M 33 40 L 178 40 L 178 185 L 33 185 Z M 33 40 " clip-rule="nonzero"/></clipPath><clipPath id="id2"><path d="M 120.195312 213.738281 L 4.148438 127.21875 L 90.667969 11.171875 L 206.714844 97.6875 Z M 120.195312 213.738281 " clip-rule="nonzero"/></clipPath><clipPath id="id3"><path d="M 120.195312 213.738281 L 4.148438 127.21875 L 90.667969 11.171875 L 206.714844 97.6875 Z M 120.195312 213.738281 " clip-rule="nonzero"/></clipPath><clipPath id="id4"><path d="M 47.410156 69.195312 C 48.117188 68.246094 48.847656 67.3125 49.601562 66.398438 C 50.355469 65.484375 51.128906 64.589844 51.929688 63.714844 C 52.726562 62.839844 53.542969 61.984375 54.382812 61.148438 C 55.222656 60.3125 56.082031 59.5 56.964844 58.707031 C 57.84375 57.910156 58.742188 57.140625 59.660156 56.390625 C 60.578125 55.644531 61.511719 54.917969 62.464844 54.214844 C 63.417969 53.511719 64.386719 52.832031 65.375 52.175781 C 66.359375 51.519531 67.363281 50.886719 68.378906 50.28125 C 69.398438 49.675781 70.429688 49.09375 71.476562 48.539062 C 72.519531 47.984375 73.582031 47.453125 74.652344 46.949219 C 75.722656 46.445312 76.808594 45.96875 77.902344 45.519531 C 79 45.066406 80.105469 44.644531 81.222656 44.25 C 82.335938 43.851562 83.460938 43.484375 84.597656 43.140625 C 85.730469 42.800781 86.875 42.488281 88.023438 42.203125 C 89.171875 41.917969 90.328125 41.660156 91.492188 41.433594 C 92.652344 41.207031 93.820312 41.007812 94.992188 40.835938 C 96.164062 40.664062 97.339844 40.523438 98.519531 40.410156 C 99.699219 40.296875 100.878906 40.210938 102.0625 40.15625 C 103.246094 40.101562 104.429688 40.074219 105.613281 40.078125 C 106.796875 40.082031 107.980469 40.113281 109.164062 40.175781 C 110.347656 40.234375 111.527344 40.324219 112.707031 40.445312 C 113.886719 40.5625 115.058594 40.710938 116.230469 40.890625 C 117.402344 41.066406 118.570312 41.269531 119.730469 41.503906 C 120.890625 41.738281 122.046875 42 123.195312 42.292969 C 124.34375 42.582031 125.484375 42.902344 126.617188 43.246094 C 127.75 43.59375 128.871094 43.96875 129.984375 44.371094 C 131.101562 44.773438 132.203125 45.203125 133.296875 45.65625 C 134.390625 46.113281 135.472656 46.597656 136.539062 47.105469 C 137.609375 47.613281 138.667969 48.148438 139.710938 48.710938 C 140.753906 49.269531 141.78125 49.859375 142.796875 50.46875 C 143.8125 51.082031 144.808594 51.714844 145.792969 52.378906 C 146.777344 53.039062 147.742188 53.722656 148.691406 54.429688 C 149.640625 55.136719 150.574219 55.867188 151.488281 56.621094 C 152.402344 57.375 153.296875 58.152344 154.171875 58.949219 C 155.046875 59.746094 155.902344 60.566406 156.738281 61.40625 C 157.574219 62.246094 158.386719 63.105469 159.179688 63.984375 C 159.972656 64.863281 160.746094 65.761719 161.492188 66.679688 C 162.242188 67.597656 162.96875 68.53125 163.671875 69.484375 C 164.375 70.4375 165.054688 71.410156 165.710938 72.394531 C 166.367188 73.382812 166.996094 74.382812 167.605469 75.402344 C 168.210938 76.417969 168.792969 77.449219 169.347656 78.496094 C 169.902344 79.542969 170.433594 80.601562 170.9375 81.671875 C 171.441406 82.746094 171.917969 83.828125 172.367188 84.925781 C 172.816406 86.019531 173.242188 87.125 173.636719 88.242188 C 174.035156 89.359375 174.402344 90.484375 174.742188 91.617188 C 175.085938 92.753906 175.398438 93.894531 175.683594 95.042969 C 175.96875 96.195312 176.222656 97.351562 176.453125 98.511719 C 176.679688 99.675781 176.878906 100.839844 177.050781 102.015625 C 177.222656 103.1875 177.363281 104.363281 177.476562 105.539062 C 177.589844 106.71875 177.671875 107.902344 177.730469 109.082031 C 177.785156 110.265625 177.808594 111.449219 177.808594 112.636719 C 177.804688 113.820312 177.773438 115.003906 177.710938 116.1875 C 177.648438 117.371094 177.558594 118.550781 177.441406 119.726562 C 177.320312 120.90625 177.171875 122.082031 176.996094 123.253906 C 176.820312 124.425781 176.613281 125.589844 176.382812 126.75 C 176.148438 127.914062 175.882812 129.066406 175.59375 130.214844 C 175.304688 131.363281 174.984375 132.503906 174.636719 133.636719 C 174.292969 134.769531 173.917969 135.894531 173.515625 137.007812 C 173.113281 138.121094 172.683594 139.226562 172.226562 140.316406 C 171.773438 141.410156 171.289062 142.492188 170.78125 143.5625 C 170.269531 144.632812 169.738281 145.6875 169.175781 146.730469 C 168.613281 147.773438 168.027344 148.804688 167.417969 149.816406 C 166.804688 150.832031 166.167969 151.832031 165.507812 152.8125 C 164.847656 153.796875 164.164062 154.761719 163.457031 155.714844 C 162.746094 156.664062 162.015625 157.59375 161.261719 158.507812 C 160.507812 159.421875 159.734375 160.316406 158.9375 161.191406 C 158.140625 162.066406 157.320312 162.921875 156.480469 163.757812 C 155.640625 164.59375 154.78125 165.410156 153.902344 166.203125 C 153.023438 166.996094 152.125 167.765625 151.207031 168.515625 C 150.289062 169.265625 149.351562 169.992188 148.398438 170.695312 C 147.445312 171.398438 146.476562 172.078125 145.492188 172.730469 C 144.503906 173.386719 143.5 174.019531 142.484375 174.625 C 141.46875 175.230469 140.433594 175.8125 139.390625 176.367188 C 138.34375 176.921875 137.285156 177.453125 136.210938 177.957031 C 135.140625 178.460938 134.054688 178.9375 132.960938 179.386719 C 131.867188 179.839844 130.757812 180.261719 129.644531 180.660156 C 128.527344 181.054688 127.402344 181.421875 126.269531 181.765625 C 125.132812 182.105469 123.992188 182.417969 122.839844 182.703125 C 121.691406 182.988281 120.535156 183.246094 119.375 183.472656 C 118.210938 183.703125 117.042969 183.902344 115.871094 184.070312 C 114.699219 184.242188 113.523438 184.382812 112.34375 184.496094 C 111.167969 184.609375 109.984375 184.695312 108.800781 184.75 C 107.617188 184.804688 106.433594 184.832031 105.25 184.828125 C 104.066406 184.824219 102.882812 184.792969 101.699219 184.730469 C 100.515625 184.671875 99.335938 184.582031 98.15625 184.460938 C 96.980469 184.34375 95.804688 184.195312 94.632812 184.019531 C 93.460938 183.839844 92.296875 183.636719 91.132812 183.402344 C 89.972656 183.167969 88.820312 182.90625 87.671875 182.613281 C 86.523438 182.324219 85.382812 182.003906 84.25 181.660156 C 83.117188 181.3125 81.992188 180.9375 80.878906 180.535156 C 79.765625 180.132812 78.660156 179.707031 77.566406 179.25 C 76.472656 178.792969 75.394531 178.3125 74.324219 177.800781 C 73.253906 177.292969 72.199219 176.757812 71.15625 176.195312 C 70.113281 175.636719 69.082031 175.050781 68.066406 174.4375 C 67.054688 173.828125 66.054688 173.191406 65.070312 172.53125 C 64.089844 171.871094 63.121094 171.183594 62.171875 170.476562 C 61.222656 169.769531 60.292969 169.039062 59.378906 168.285156 C 58.464844 167.53125 57.570312 166.753906 56.695312 165.957031 C 55.816406 165.160156 54.960938 164.339844 54.128906 163.5 C 53.292969 162.660156 52.476562 161.800781 51.683594 160.921875 C 50.890625 160.042969 50.121094 159.144531 49.371094 158.226562 C 48.621094 157.308594 47.894531 156.375 47.191406 155.421875 C 46.488281 154.46875 45.808594 153.5 45.152344 152.511719 C 44.5 151.523438 43.867188 150.523438 43.261719 149.503906 C 42.65625 148.488281 42.074219 147.457031 41.519531 146.410156 C 40.960938 145.363281 40.433594 144.304688 39.929688 143.234375 C 39.425781 142.160156 38.949219 141.078125 38.496094 139.980469 C 38.046875 138.886719 37.625 137.78125 37.226562 136.664062 C 36.832031 135.546875 36.460938 134.421875 36.121094 133.289062 C 35.78125 132.15625 35.46875 131.011719 35.183594 129.863281 C 34.898438 128.714844 34.640625 127.558594 34.414062 126.394531 C 34.183594 125.234375 33.984375 124.066406 33.8125 122.894531 C 33.644531 121.722656 33.5 120.546875 33.386719 119.367188 C 33.273438 118.1875 33.191406 117.007812 33.136719 115.824219 C 33.082031 114.640625 33.054688 113.457031 33.058594 112.273438 C 33.058594 111.085938 33.09375 109.902344 33.152344 108.71875 C 33.214844 107.539062 33.304688 106.355469 33.425781 105.179688 C 33.542969 104 33.691406 102.824219 33.867188 101.652344 C 34.042969 100.484375 34.25 99.316406 34.484375 98.15625 C 34.71875 96.996094 34.980469 95.839844 35.269531 94.691406 C 35.5625 93.542969 35.878906 92.402344 36.226562 91.269531 C 36.574219 90.136719 36.949219 89.015625 37.347656 87.898438 C 37.75 86.785156 38.179688 85.683594 38.636719 84.589844 C 39.09375 83.496094 39.574219 82.414062 40.085938 81.34375 C 40.59375 80.277344 41.128906 79.21875 41.6875 78.175781 C 42.25 77.132812 42.835938 76.105469 43.449219 75.089844 C 44.058594 74.074219 44.695312 73.078125 45.355469 72.09375 C 46.015625 71.109375 46.699219 70.144531 47.410156 69.195312 Z M 47.410156 69.195312 " clip-rule="nonzero"/></clipPath><linearGradient x1="1745.299623" gradientTransform="matrix(0.674351, -0.9045, 0.9045, 0.674351, -1353.50488, 1607.17599)" y1="244.834" x2="1924.85247" gradientUnits="userSpaceOnUse" y2="244.834" id="id5"><stop stop-opacity="1" stop-color="rgb(76.899719%, 0%, 100%)" offset="0"/><stop stop-opacity="1" stop-color="rgb(76.899719%, 0%, 100%)" offset="0.125"/><stop stop-opacity="1" stop-color="rgb(76.899719%, 0%, 100%)" offset="0.140625"/><stop stop-opacity="1" stop-color="rgb(76.647949%, 0.511169%, 100%)" offset="0.144531"/><stop stop-opacity="1" stop-color="rgb(76.396179%, 1.022339%, 100%)" offset="0.148438"/><stop stop-opacity="1" stop-color="rgb(76.051331%, 1.721191%, 100%)" offset="0.152344"/><stop stop-opacity="1" stop-color="rgb(75.706482%, 2.420044%, 100%)" offset="0.15625"/><stop stop-opacity="1" stop-color="rgb(75.361633%, 3.118896%, 100%)" offset="0.160156"/><stop stop-opacity="1" stop-color="rgb(75.018311%, 3.817749%, 100%)" offset="0.164062"/><stop stop-opacity="1" stop-color="rgb(74.673462%, 4.516602%, 100%)" offset="0.167969"/><stop stop-opacity="1" stop-color="rgb(74.328613%, 5.215454%, 100%)" offset="0.171875"/><stop stop-opacity="1" stop-color="rgb(73.983765%, 5.914307%, 100%)" offset="0.175781"/><stop stop-opacity="1" stop-color="rgb(73.640442%, 6.614685%, 100%)" offset="0.179688"/><stop stop-opacity="1" stop-color="rgb(73.295593%, 7.313538%, 100%)" offset="0.183594"/><stop stop-opacity="1" stop-color="rgb(72.952271%, 8.01239%, 100%)" offset="0.1875"/><stop stop-opacity="1" stop-color="rgb(72.607422%, 8.711243%, 100%)" offset="0.191406"/><stop stop-opacity="1" stop-color="rgb(72.262573%, 9.410095%, 100%)" offset="0.195312"/><stop stop-opacity="1" stop-color="rgb(71.917725%, 10.108948%, 100%)" offset="0.199219"/><stop stop-opacity="1" stop-color="rgb(71.574402%, 10.8078%, 100%)" offset="0.203125"/><stop stop-opacity="1" stop-color="rgb(71.229553%, 11.506653%, 100%)" offset="0.207031"/><stop stop-opacity="1" stop-color="rgb(70.88623%, 12.207031%, 100%)" offset="0.210938"/><stop stop-opacity="1" stop-color="rgb(70.541382%, 12.905884%, 100%)" offset="0.214844"/><stop stop-opacity="1" stop-color="rgb(70.196533%, 13.604736%, 100%)" offset="0.21875"/><stop stop-opacity="1" stop-color="rgb(69.851685%, 14.303589%, 100%)" offset="0.222656"/><stop stop-opacity="1" stop-color="rgb(69.508362%, 15.002441%, 100%)" offset="0.226562"/><stop stop-opacity="1" stop-color="rgb(69.163513%, 15.701294%, 100%)" offset="0.230469"/><stop stop-opacity="1" stop-color="rgb(68.82019%, 16.401672%, 100%)" offset="0.234375"/><stop stop-opacity="1" stop-color="rgb(68.475342%, 17.100525%, 100%)" offset="0.238281"/><stop stop-opacity="1" stop-color="rgb(68.130493%, 17.799377%, 100%)" offset="0.242188"/><stop stop-opacity="1" stop-color="rgb(67.785645%, 18.49823%, 100%)" offset="0.246094"/><stop stop-opacity="1" stop-color="rgb(67.442322%, 19.197083%, 100%)" offset="0.25"/><stop stop-opacity="1" stop-color="rgb(67.097473%, 19.895935%, 100%)" offset="0.253906"/><stop stop-opacity="1" stop-color="rgb(66.75415%, 20.594788%, 100%)" offset="0.257812"/><stop stop-opacity="1" stop-color="rgb(66.409302%, 21.29364%, 100%)" offset="0.261719"/><stop stop-opacity="1" stop-color="rgb(66.064453%, 21.994019%, 100%)" offset="0.265625"/><stop stop-opacity="1" stop-color="rgb(65.719604%, 22.692871%, 100%)" offset="0.269531"/><stop stop-opacity="1" stop-color="rgb(65.376282%, 23.391724%, 100%)" offset="0.273438"/><stop stop-opacity="1" stop-color="rgb(65.031433%, 24.090576%, 100%)" offset="0.277344"/><stop stop-opacity="1" stop-color="rgb(64.686584%, 24.789429%, 100%)" offset="0.28125"/><stop stop-opacity="1" stop-color="rgb(64.341736%, 25.488281%, 100%)" offset="0.285156"/><stop stop-opacity="1" stop-color="rgb(63.998413%, 26.187134%, 100%)" offset="0.289062"/><stop stop-opacity="1" stop-color="rgb(63.653564%, 26.885986%, 100%)" offset="0.292969"/><stop stop-opacity="1" stop-color="rgb(63.310242%, 27.586365%, 100%)" offset="0.296875"/><stop stop-opacity="1" stop-color="rgb(62.965393%, 28.285217%, 100%)" offset="0.300781"/><stop stop-opacity="1" stop-color="rgb(62.620544%, 28.98407%, 100%)" offset="0.304688"/><stop stop-opacity="1" stop-color="rgb(62.275696%, 29.682922%, 100%)" offset="0.308594"/><stop stop-opacity="1" stop-color="rgb(61.932373%, 30.381775%, 100%)" offset="0.3125"/><stop stop-opacity="1" stop-color="rgb(61.587524%, 31.080627%, 100%)" offset="0.316406"/><stop stop-opacity="1" stop-color="rgb(61.244202%, 31.77948%, 100%)" offset="0.320313"/><stop stop-opacity="1" stop-color="rgb(60.899353%, 32.478333%, 100%)" offset="0.324219"/><stop stop-opacity="1" stop-color="rgb(60.554504%, 33.178711%, 100%)" offset="0.328125"/><stop stop-opacity="1" stop-color="rgb(60.209656%, 33.877563%, 100%)" offset="0.332031"/><stop stop-opacity="1" stop-color="rgb(59.866333%, 34.576416%, 100%)" offset="0.335938"/><stop stop-opacity="1" stop-color="rgb(59.521484%, 35.275269%, 100%)" offset="0.339844"/><stop stop-opacity="1" stop-color="rgb(59.178162%, 35.974121%, 100%)" offset="0.34375"/><stop stop-opacity="1" stop-color="rgb(58.833313%, 36.672974%, 100%)" offset="0.347656"/><stop stop-opacity="1" stop-color="rgb(58.488464%, 37.371826%, 100%)" offset="0.351562"/><stop stop-opacity="1" stop-color="rgb(58.143616%, 38.070679%, 100%)" offset="0.355469"/><stop stop-opacity="1" stop-color="rgb(57.800293%, 38.771057%, 100%)" offset="0.359375"/><stop stop-opacity="1" stop-color="rgb(57.455444%, 39.46991%, 100%)" offset="0.363281"/><stop stop-opacity="1" stop-color="rgb(57.112122%, 40.168762%, 100%)" offset="0.367188"/><stop stop-opacity="1" stop-color="rgb(56.767273%, 40.867615%, 100%)" offset="0.371094"/><stop stop-opacity="1" stop-color="rgb(56.422424%, 41.566467%, 100%)" offset="0.375"/><stop stop-opacity="1" stop-color="rgb(56.077576%, 42.26532%, 100%)" offset="0.378906"/><stop stop-opacity="1" stop-color="rgb(55.734253%, 42.964172%, 100%)" offset="0.382812"/><stop stop-opacity="1" stop-color="rgb(55.389404%, 43.663025%, 100%)" offset="0.386719"/><stop stop-opacity="1" stop-color="rgb(55.044556%, 44.363403%, 100%)" offset="0.390625"/><stop stop-opacity="1" stop-color="rgb(54.699707%, 45.062256%, 100%)" offset="0.394531"/><stop stop-opacity="1" stop-color="rgb(54.356384%, 45.761108%, 100%)" offset="0.398438"/><stop stop-opacity="1" stop-color="rgb(54.011536%, 46.459961%, 100%)" offset="0.402344"/><stop stop-opacity="1" stop-color="rgb(53.668213%, 47.158813%, 100%)" offset="0.40625"/><stop stop-opacity="1" stop-color="rgb(53.323364%, 47.857666%, 100%)" offset="0.410156"/><stop stop-opacity="1" stop-color="rgb(52.978516%, 48.556519%, 100%)" offset="0.414062"/><stop stop-opacity="1" stop-color="rgb(52.633667%, 49.255371%, 100%)" offset="0.417969"/><stop stop-opacity="1" stop-color="rgb(52.290344%, 49.95575%, 100%)" offset="0.421875"/><stop stop-opacity="1" stop-color="rgb(51.945496%, 50.654602%, 100%)" offset="0.425781"/><stop stop-opacity="1" stop-color="rgb(51.602173%, 51.353455%, 100%)" offset="0.429688"/><stop stop-opacity="1" stop-color="rgb(51.257324%, 52.052307%, 100%)" offset="0.433594"/><stop stop-opacity="1" stop-color="rgb(50.912476%, 52.75116%, 100%)" offset="0.4375"/><stop stop-opacity="1" stop-color="rgb(50.567627%, 53.450012%, 100%)" offset="0.441406"/><stop stop-opacity="1" stop-color="rgb(50.224304%, 54.148865%, 100%)" offset="0.445312"/><stop stop-opacity="1" stop-color="rgb(49.879456%, 54.847717%, 100%)" offset="0.449219"/><stop stop-opacity="1" stop-color="rgb(49.536133%, 55.548096%, 100%)" offset="0.453125"/><stop stop-opacity="1" stop-color="rgb(49.191284%, 56.246948%, 100%)" offset="0.457031"/><stop stop-opacity="1" stop-color="rgb(48.846436%, 56.945801%, 100%)" offset="0.460938"/><stop stop-opacity="1" stop-color="rgb(48.501587%, 57.644653%, 100%)" offset="0.464844"/><stop stop-opacity="1" stop-color="rgb(48.158264%, 58.343506%, 100%)" offset="0.46875"/><stop stop-opacity="1" stop-color="rgb(47.813416%, 59.042358%, 100%)" offset="0.472656"/><stop stop-opacity="1" stop-color="rgb(47.468567%, 59.742737%, 100%)" offset="0.476562"/><stop stop-opacity="1" stop-color="rgb(47.123718%, 60.441589%, 100%)" offset="0.480469"/><stop stop-opacity="1" stop-color="rgb(46.780396%, 61.140442%, 100%)" offset="0.484375"/><stop stop-opacity="1" stop-color="rgb(46.435547%, 61.839294%, 100%)" offset="0.488281"/><stop stop-opacity="1" stop-color="rgb(46.092224%, 62.538147%, 100%)" offset="0.492188"/><stop stop-opacity="1" stop-color="rgb(45.747375%, 63.237%, 100%)" offset="0.496094"/><stop stop-opacity="1" stop-color="rgb(45.402527%, 63.935852%, 100%)" offset="0.5"/><stop stop-opacity="1" stop-color="rgb(45.057678%, 64.634705%, 100%)" offset="0.503906"/><stop stop-opacity="1" stop-color="rgb(44.714355%, 65.335083%, 100%)" offset="0.507812"/><stop stop-opacity="1" stop-color="rgb(44.369507%, 66.033936%, 100%)" offset="0.511719"/><stop stop-opacity="1" stop-color="rgb(44.026184%, 66.732788%, 100%)" offset="0.515625"/><stop stop-opacity="1" stop-color="rgb(43.681335%, 67.431641%, 100%)" offset="0.519531"/><stop stop-opacity="1" stop-color="rgb(43.336487%, 68.130493%, 100%)" offset="0.523438"/><stop stop-opacity="1" stop-color="rgb(42.991638%, 68.829346%, 100%)" offset="0.527344"/><stop stop-opacity="1" stop-color="rgb(42.648315%, 69.528198%, 100%)" offset="0.53125"/><stop stop-opacity="1" stop-color="rgb(42.303467%, 70.227051%, 100%)" offset="0.535156"/><stop stop-opacity="1" stop-color="rgb(41.960144%, 70.927429%, 100%)" offset="0.539063"/><stop stop-opacity="1" stop-color="rgb(41.615295%, 71.626282%, 100%)" offset="0.542969"/><stop stop-opacity="1" stop-color="rgb(41.270447%, 72.325134%, 100%)" offset="0.546875"/><stop stop-opacity="1" stop-color="rgb(40.925598%, 73.023987%, 100%)" offset="0.550781"/><stop stop-opacity="1" stop-color="rgb(40.582275%, 73.722839%, 100%)" offset="0.554688"/><stop stop-opacity="1" stop-color="rgb(40.237427%, 74.421692%, 100%)" offset="0.558594"/><stop stop-opacity="1" stop-color="rgb(39.894104%, 75.120544%, 100%)" offset="0.5625"/><stop stop-opacity="1" stop-color="rgb(39.549255%, 75.819397%, 100%)" offset="0.566406"/><stop stop-opacity="1" stop-color="rgb(39.204407%, 76.519775%, 100%)" offset="0.570313"/><stop stop-opacity="1" stop-color="rgb(38.859558%, 77.218628%, 100%)" offset="0.574219"/><stop stop-opacity="1" stop-color="rgb(38.516235%, 77.91748%, 100%)" offset="0.578125"/><stop stop-opacity="1" stop-color="rgb(38.171387%, 78.616333%, 100%)" offset="0.582031"/><stop stop-opacity="1" stop-color="rgb(37.826538%, 79.315186%, 100%)" offset="0.585938"/><stop stop-opacity="1" stop-color="rgb(37.481689%, 80.014038%, 100%)" offset="0.589844"/><stop stop-opacity="1" stop-color="rgb(37.138367%, 80.712891%, 100%)" offset="0.59375"/><stop stop-opacity="1" stop-color="rgb(36.688232%, 81.117249%, 100%)" offset="0.597656"/><stop stop-opacity="1" stop-color="rgb(36.239624%, 81.521606%, 100%)" offset="0.601563"/><stop stop-opacity="1" stop-color="rgb(35.734558%, 81.767273%, 100%)" offset="0.605469"/><stop stop-opacity="1" stop-color="rgb(35.229492%, 82.014465%, 100%)" offset="0.609375"/><stop stop-opacity="1" stop-color="rgb(34.7229%, 82.260132%, 100%)" offset="0.613281"/><stop stop-opacity="1" stop-color="rgb(34.217834%, 82.507324%, 100%)" offset="0.617188"/><stop stop-opacity="1" stop-color="rgb(33.712769%, 82.752991%, 100%)" offset="0.621094"/><stop stop-opacity="1" stop-color="rgb(33.207703%, 83.000183%, 100%)" offset="0.625"/><stop stop-opacity="1" stop-color="rgb(32.702637%, 83.24585%, 100%)" offset="0.628906"/><stop stop-opacity="1" stop-color="rgb(32.197571%, 83.493042%, 100%)" offset="0.632813"/><stop stop-opacity="1" stop-color="rgb(31.690979%, 83.738708%, 100%)" offset="0.636719"/><stop stop-opacity="1" stop-color="rgb(31.185913%, 83.985901%, 100%)" offset="0.640625"/><stop stop-opacity="1" stop-color="rgb(30.680847%, 84.231567%, 100%)" offset="0.644531"/><stop stop-opacity="1" stop-color="rgb(30.175781%, 84.47876%, 100%)" offset="0.648438"/><stop stop-opacity="1" stop-color="rgb(29.670715%, 84.725952%, 100%)" offset="0.652344"/><stop stop-opacity="1" stop-color="rgb(29.165649%, 84.973145%, 100%)" offset="0.65625"/><stop stop-opacity="1" stop-color="rgb(28.659058%, 85.218811%, 100%)" offset="0.660156"/><stop stop-opacity="1" stop-color="rgb(28.153992%, 85.466003%, 100%)" offset="0.664063"/><stop stop-opacity="1" stop-color="rgb(27.648926%, 85.71167%, 100%)" offset="0.667969"/><stop stop-opacity="1" stop-color="rgb(27.14386%, 85.958862%, 100%)" offset="0.671875"/><stop stop-opacity="1" stop-color="rgb(26.638794%, 86.204529%, 100%)" offset="0.675781"/><stop stop-opacity="1" stop-color="rgb(26.133728%, 86.451721%, 100%)" offset="0.679688"/><stop stop-opacity="1" stop-color="rgb(25.627136%, 86.697388%, 100%)" offset="0.683594"/><stop stop-opacity="1" stop-color="rgb(25.12207%, 86.94458%, 100%)" offset="0.6875"/><stop stop-opacity="1" stop-color="rgb(24.617004%, 87.190247%, 100%)" offset="0.691406"/><stop stop-opacity="1" stop-color="rgb(24.111938%, 87.437439%, 100%)" offset="0.695313"/><stop stop-opacity="1" stop-color="rgb(23.606873%, 87.683105%, 100%)" offset="0.699219"/><stop stop-opacity="1" stop-color="rgb(23.101807%, 87.930298%, 100%)" offset="0.703125"/><stop stop-opacity="1" stop-color="rgb(22.595215%, 88.17749%, 100%)" offset="0.707031"/><stop stop-opacity="1" stop-color="rgb(22.090149%, 88.424683%, 100%)" offset="0.710938"/><stop stop-opacity="1" stop-color="rgb(21.585083%, 88.670349%, 100%)" offset="0.714844"/><stop stop-opacity="1" stop-color="rgb(21.080017%, 88.917542%, 100%)" offset="0.71875"/><stop stop-opacity="1" stop-color="rgb(20.574951%, 89.163208%, 100%)" offset="0.722656"/><stop stop-opacity="1" stop-color="rgb(20.069885%, 89.4104%, 100%)" offset="0.726563"/><stop stop-opacity="1" stop-color="rgb(19.563293%, 89.656067%, 100%)" offset="0.730469"/><stop stop-opacity="1" stop-color="rgb(19.058228%, 89.903259%, 100%)" offset="0.734375"/><stop stop-opacity="1" stop-color="rgb(18.553162%, 90.148926%, 100%)" offset="0.738281"/><stop stop-opacity="1" stop-color="rgb(18.048096%, 90.396118%, 100%)" offset="0.742188"/><stop stop-opacity="1" stop-color="rgb(17.54303%, 90.641785%, 100%)" offset="0.746094"/><stop stop-opacity="1" stop-color="rgb(17.037964%, 90.888977%, 100%)" offset="0.75"/><stop stop-opacity="1" stop-color="rgb(16.531372%, 91.134644%, 100%)" offset="0.753906"/><stop stop-opacity="1" stop-color="rgb(16.026306%, 91.381836%, 100%)" offset="0.757813"/><stop stop-opacity="1" stop-color="rgb(15.52124%, 91.629028%, 100%)" offset="0.761719"/><stop stop-opacity="1" stop-color="rgb(15.016174%, 91.876221%, 100%)" offset="0.765625"/><stop stop-opacity="1" stop-color="rgb(14.511108%, 92.121887%, 100%)" offset="0.769531"/><stop stop-opacity="1" stop-color="rgb(14.006042%, 92.36908%, 100%)" offset="0.773438"/><stop stop-opacity="1" stop-color="rgb(13.499451%, 92.614746%, 100%)" offset="0.777344"/><stop stop-opacity="1" stop-color="rgb(12.994385%, 92.861938%, 100%)" offset="0.78125"/><stop stop-opacity="1" stop-color="rgb(12.489319%, 93.107605%, 100%)" offset="0.785156"/><stop stop-opacity="1" stop-color="rgb(11.984253%, 93.354797%, 100%)" offset="0.789063"/><stop stop-opacity="1" stop-color="rgb(11.479187%, 93.600464%, 100%)" offset="0.792969"/><stop stop-opacity="1" stop-color="rgb(10.974121%, 93.847656%, 100%)" offset="0.796875"/><stop stop-opacity="1" stop-color="rgb(10.467529%, 94.093323%, 100%)" offset="0.800781"/><stop stop-opacity="1" stop-color="rgb(9.962463%, 94.340515%, 100%)" offset="0.804688"/><stop stop-opacity="1" stop-color="rgb(9.457397%, 94.586182%, 100%)" offset="0.808594"/><stop stop-opacity="1" stop-color="rgb(8.952332%, 94.833374%, 100%)" offset="0.8125"/><stop stop-opacity="1" stop-color="rgb(8.447266%, 95.080566%, 100%)" offset="0.816406"/><stop stop-opacity="1" stop-color="rgb(7.9422%, 95.327759%, 100%)" offset="0.820313"/><stop stop-opacity="1" stop-color="rgb(7.435608%, 95.573425%, 100%)" offset="0.824219"/><stop stop-opacity="1" stop-color="rgb(6.930542%, 95.820618%, 100%)" offset="0.828125"/><stop stop-opacity="1" stop-color="rgb(6.425476%, 96.066284%, 100%)" offset="0.832031"/><stop stop-opacity="1" stop-color="rgb(5.92041%, 96.313477%, 100%)" offset="0.835938"/><stop stop-opacity="1" stop-color="rgb(5.415344%, 96.559143%, 100%)" offset="0.839844"/><stop stop-opacity="1" stop-color="rgb(4.910278%, 96.806335%, 100%)" offset="0.84375"/><stop stop-opacity="1" stop-color="rgb(4.403687%, 97.052002%, 100%)" offset="0.847656"/><stop stop-opacity="1" stop-color="rgb(3.898621%, 97.299194%, 100%)" offset="0.851563"/><stop stop-opacity="1" stop-color="rgb(3.898621%, 97.299194%, 100%)" offset="0.859375"/><stop stop-opacity="1" stop-color="rgb(3.898621%, 97.299194%, 100%)" offset="0.875"/><stop stop-opacity="1" stop-color="rgb(3.898621%, 97.299194%, 100%)" offset="1"/></linearGradient><clipPath id="id6"><path d="M 58 65.332031 L 83 65.332031 L 83 90 L 58 90 Z M 58 65.332031 " clip-rule="nonzero"/></clipPath><clipPath id="id7"><path d="M 58 65.332031 L 118 65.332031 L 118 125 L 58 125 Z M 58 65.332031 " clip-rule="nonzero"/></clipPath><clipPath id="id8"><path d="M 128 135 L 153 135 L 153 159.832031 L 128 159.832031 Z M 128 135 " clip-rule="nonzero"/></clipPath><clipPath id="id9"><path d="M 94 101 L 153 101 L 153 159.832031 L 94 159.832031 Z M 94 101 " clip-rule="nonzero"/></clipPath><clipPath id="id10"><path d="M 59 65.332031 L 153.59375 65.332031 L 153.59375 159 L 59 159 Z M 59 65.332031 " clip-rule="nonzero"/></clipPath></defs><g clip-path="url(#id1)"><g clip-path="url(#id2)"><g clip-path="url(#id3)"><g clip-path="url(#id4)"><path fill="url(#id5)" d="M -36.3125 133.117188 L 126.09375 254.195312 L 247.175781 91.792969 L 84.769531 -29.289062 Z M -36.3125 133.117188 " fill-rule="nonzero"/></g></g></g></g><g clip-path="url(#id6)"><path fill="#0f0246" d="M 60.207031 76.824219 L 69.558594 67.488281 C 69.90625 67.15625 70.28125 66.859375 70.683594 66.601562 C 71.089844 66.339844 71.511719 66.121094 71.960938 65.945312 C 72.40625 65.769531 72.867188 65.636719 73.335938 65.550781 C 73.808594 65.460938 74.285156 65.421875 74.765625 65.425781 C 75.246094 65.429688 75.722656 65.480469 76.191406 65.578125 C 76.664062 65.675781 77.117188 65.816406 77.5625 66.003906 C 78.003906 66.1875 78.425781 66.414062 78.824219 66.683594 C 79.222656 66.949219 79.589844 67.253906 79.929688 67.59375 C 80.269531 67.929688 80.574219 68.300781 80.839844 68.699219 C 81.109375 69.097656 81.335938 69.515625 81.523438 69.957031 C 81.707031 70.398438 81.851562 70.855469 81.949219 71.324219 C 82.042969 71.796875 82.097656 72.269531 82.101562 72.75 C 82.105469 73.230469 82.0625 73.703125 81.976562 74.175781 C 81.890625 74.648438 81.757812 75.105469 81.578125 75.550781 C 81.402344 75.996094 81.183594 76.421875 80.925781 76.824219 C 80.664062 77.226562 80.367188 77.601562 80.035156 77.949219 L 70.683594 87.285156 C 70.339844 87.617188 69.964844 87.914062 69.558594 88.171875 C 69.15625 88.433594 68.730469 88.652344 68.285156 88.828125 C 67.835938 89.003906 67.378906 89.136719 66.90625 89.222656 C 66.433594 89.3125 65.957031 89.351562 65.476562 89.347656 C 64.996094 89.34375 64.523438 89.292969 64.050781 89.195312 C 63.582031 89.097656 63.125 88.957031 62.683594 88.769531 C 62.238281 88.585938 61.820312 88.359375 61.421875 88.089844 C 61.023438 87.824219 60.652344 87.519531 60.3125 87.179688 C 59.972656 86.84375 59.671875 86.472656 59.402344 86.074219 C 59.136719 85.675781 58.90625 85.257812 58.722656 84.816406 C 58.535156 84.375 58.394531 83.917969 58.296875 83.449219 C 58.199219 82.976562 58.148438 82.503906 58.144531 82.023438 C 58.140625 81.542969 58.179688 81.070312 58.269531 80.597656 C 58.355469 80.125 58.488281 79.667969 58.664062 79.222656 C 58.839844 78.777344 59.058594 78.351562 59.320312 77.949219 C 59.578125 77.542969 59.875 77.171875 60.207031 76.824219 Z M 60.207031 76.824219 " fill-opacity="1" fill-rule="nonzero"/></g><g clip-path="url(#id7)"><path fill="#0f0246" d="M 60.886719 111.570312 L 104.804688 67.71875 C 105.152344 67.386719 105.527344 67.089844 105.929688 66.828125 C 106.335938 66.570312 106.757812 66.351562 107.207031 66.175781 C 107.652344 66 108.113281 65.867188 108.582031 65.78125 C 109.054688 65.691406 109.53125 65.652344 110.011719 65.65625 C 110.492188 65.660156 110.96875 65.710938 111.4375 65.808594 C 111.910156 65.90625 112.363281 66.046875 112.808594 66.234375 C 113.25 66.417969 113.671875 66.644531 114.070312 66.914062 C 114.46875 67.179688 114.835938 67.484375 115.175781 67.824219 C 115.515625 68.160156 115.820312 68.53125 116.085938 68.929688 C 116.355469 69.328125 116.582031 69.746094 116.769531 70.1875 C 116.953125 70.628906 117.097656 71.085938 117.195312 71.554688 C 117.289062 72.027344 117.339844 72.5 117.347656 72.980469 C 117.351562 73.457031 117.308594 73.933594 117.222656 74.40625 C 117.136719 74.878906 117.003906 75.335938 116.824219 75.78125 C 116.648438 76.226562 116.429688 76.652344 116.171875 77.054688 C 115.910156 77.457031 115.613281 77.832031 115.28125 78.179688 L 71.363281 122.035156 C 71.023438 122.390625 70.648438 122.707031 70.246094 122.988281 C 69.839844 123.269531 69.410156 123.507812 68.957031 123.703125 C 68.507812 123.898438 68.039062 124.046875 67.554688 124.148438 C 67.074219 124.25 66.585938 124.304688 66.09375 124.308594 C 65.601562 124.3125 65.113281 124.269531 64.628906 124.179688 C 64.144531 124.085938 63.675781 123.945312 63.21875 123.761719 C 62.761719 123.574219 62.328125 123.34375 61.917969 123.074219 C 61.507812 122.800781 61.128906 122.492188 60.777344 122.140625 C 60.429688 121.792969 60.121094 121.414062 59.847656 121.003906 C 59.574219 120.59375 59.34375 120.164062 59.15625 119.707031 C 58.972656 119.25 58.832031 118.78125 58.738281 118.296875 C 58.648438 117.816406 58.605469 117.328125 58.609375 116.835938 C 58.613281 116.34375 58.667969 115.855469 58.769531 115.375 C 58.871094 114.894531 59.019531 114.425781 59.214844 113.972656 C 59.410156 113.523438 59.648438 113.09375 59.929688 112.691406 C 60.210938 112.285156 60.53125 111.914062 60.886719 111.570312 Z M 60.886719 111.570312 " fill-opacity="1" fill-rule="nonzero"/></g><g clip-path="url(#id8)"><path fill="#0f0246" d="M 150.527344 148.339844 L 141.175781 157.675781 C 140.832031 158.019531 140.457031 158.324219 140.054688 158.59375 C 139.648438 158.859375 139.222656 159.085938 138.773438 159.273438 C 138.324219 159.457031 137.859375 159.597656 137.382812 159.691406 C 136.90625 159.785156 136.425781 159.832031 135.9375 159.832031 C 135.453125 159.832031 134.972656 159.785156 134.496094 159.691406 C 134.019531 159.597656 133.554688 159.457031 133.105469 159.273438 C 132.65625 159.085938 132.230469 158.859375 131.824219 158.59375 C 131.417969 158.324219 131.042969 158.019531 130.699219 157.675781 C 130.355469 157.332031 130.050781 156.960938 129.777344 156.554688 C 129.507812 156.152344 129.28125 155.726562 129.09375 155.277344 C 128.910156 154.828125 128.769531 154.367188 128.671875 153.890625 C 128.578125 153.414062 128.53125 152.929688 128.53125 152.445312 C 128.53125 151.960938 128.578125 151.480469 128.671875 151.003906 C 128.769531 150.527344 128.910156 150.0625 129.09375 149.613281 C 129.28125 149.167969 129.507812 148.738281 129.777344 148.335938 C 130.050781 147.933594 130.355469 147.558594 130.699219 147.214844 L 140.050781 137.878906 C 140.398438 137.546875 140.773438 137.25 141.175781 136.988281 C 141.582031 136.730469 142.003906 136.511719 142.453125 136.335938 C 142.898438 136.160156 143.359375 136.027344 143.828125 135.941406 C 144.300781 135.851562 144.777344 135.8125 145.257812 135.816406 C 145.738281 135.820312 146.214844 135.871094 146.683594 135.96875 C 147.152344 136.066406 147.609375 136.207031 148.054688 136.394531 C 148.496094 136.578125 148.917969 136.804688 149.316406 137.074219 C 149.714844 137.339844 150.082031 137.644531 150.421875 137.984375 C 150.761719 138.320312 151.066406 138.691406 151.332031 139.089844 C 151.601562 139.488281 151.828125 139.90625 152.015625 140.347656 C 152.199219 140.789062 152.34375 141.246094 152.4375 141.714844 C 152.535156 142.1875 152.585938 142.660156 152.59375 143.140625 C 152.597656 143.617188 152.554688 144.09375 152.46875 144.566406 C 152.378906 145.039062 152.25 145.496094 152.070312 145.941406 C 151.894531 146.386719 151.675781 146.8125 151.417969 147.214844 C 151.15625 147.617188 150.859375 147.992188 150.527344 148.339844 Z M 150.527344 148.339844 " fill-opacity="1" fill-rule="nonzero"/></g><g clip-path="url(#id9)"><path fill="#0f0246" d="M 150.746094 113.589844 L 106.828125 157.488281 C 106.480469 157.820312 106.105469 158.113281 105.703125 158.375 C 105.296875 158.632812 104.871094 158.851562 104.425781 159.027344 C 103.980469 159.203125 103.519531 159.335938 103.046875 159.425781 C 102.574219 159.511719 102.101562 159.554688 101.621094 159.546875 C 101.140625 159.542969 100.664062 159.492188 100.195312 159.394531 C 99.722656 159.296875 99.265625 159.15625 98.824219 158.972656 C 98.382812 158.785156 97.960938 158.558594 97.5625 158.292969 C 97.164062 158.023438 96.792969 157.722656 96.457031 157.382812 C 96.117188 157.042969 95.8125 156.675781 95.542969 156.277344 C 95.277344 155.878906 95.050781 155.457031 94.863281 155.015625 C 94.675781 154.574219 94.535156 154.117188 94.4375 153.648438 C 94.339844 153.179688 94.289062 152.703125 94.285156 152.226562 C 94.28125 151.746094 94.320312 151.269531 94.410156 150.796875 C 94.496094 150.328125 94.628906 149.867188 94.804688 149.421875 C 94.984375 148.976562 95.203125 148.550781 95.460938 148.148438 C 95.722656 147.746094 96.015625 147.371094 96.351562 147.023438 L 140.269531 103.128906 C 140.613281 102.796875 140.988281 102.5 141.394531 102.242188 C 141.796875 101.984375 142.222656 101.765625 142.667969 101.589844 C 143.117188 101.410156 143.574219 101.28125 144.046875 101.191406 C 144.519531 101.105469 144.996094 101.0625 145.476562 101.066406 C 145.957031 101.074219 146.429688 101.125 146.902344 101.222656 C 147.371094 101.316406 147.828125 101.460938 148.269531 101.644531 C 148.714844 101.832031 149.132812 102.058594 149.53125 102.324219 C 149.929688 102.59375 150.300781 102.894531 150.640625 103.234375 C 150.980469 103.574219 151.28125 103.941406 151.550781 104.339844 C 151.820312 104.738281 152.046875 105.160156 152.230469 105.601562 C 152.417969 106.042969 152.558594 106.5 152.65625 106.96875 C 152.753906 107.4375 152.804688 107.910156 152.808594 108.390625 C 152.816406 108.871094 152.773438 109.347656 152.6875 109.816406 C 152.597656 110.289062 152.464844 110.75 152.289062 111.195312 C 152.113281 111.640625 151.894531 112.0625 151.632812 112.46875 C 151.375 112.871094 151.078125 113.246094 150.746094 113.589844 Z M 150.746094 113.589844 " fill-opacity="1" fill-rule="nonzero"/></g><g clip-path="url(#id10)"><path fill="#0f0246" d="M 153.050781 74.046875 L 153.050781 85.660156 C 153.054688 86.433594 152.929688 87.1875 152.679688 87.917969 C 152.429688 88.648438 152.066406 89.320312 151.59375 89.933594 C 151.121094 90.546875 150.5625 91.066406 149.914062 91.492188 C 149.269531 91.917969 148.570312 92.226562 147.824219 92.421875 C 147.074219 92.617188 146.3125 92.683594 145.539062 92.628906 C 144.769531 92.570312 144.027344 92.390625 143.3125 92.085938 C 142.601562 91.78125 141.957031 91.371094 141.382812 90.851562 C 140.808594 90.335938 140.332031 89.738281 139.957031 89.0625 L 71.960938 156.851562 C 71.613281 157.183594 71.238281 157.476562 70.835938 157.738281 C 70.429688 157.996094 70.007812 158.214844 69.558594 158.390625 C 69.113281 158.566406 68.652344 158.699219 68.183594 158.789062 C 67.710938 158.875 67.234375 158.917969 66.753906 158.910156 C 66.273438 158.90625 65.796875 158.855469 65.328125 158.757812 C 64.859375 158.660156 64.402344 158.519531 63.957031 158.335938 C 63.515625 158.148438 63.09375 157.921875 62.695312 157.65625 C 62.296875 157.386719 61.929688 157.082031 61.589844 156.746094 C 61.25 156.40625 60.945312 156.039062 60.679688 155.640625 C 60.410156 155.242188 60.183594 154.820312 59.996094 154.378906 C 59.8125 153.9375 59.671875 153.480469 59.574219 153.011719 C 59.476562 152.542969 59.425781 152.066406 59.417969 151.589844 C 59.414062 151.109375 59.457031 150.632812 59.542969 150.160156 C 59.632812 149.691406 59.761719 149.230469 59.941406 148.785156 C 60.117188 148.339844 60.335938 147.914062 60.59375 147.511719 C 60.855469 147.109375 61.152344 146.734375 61.484375 146.386719 L 129.125 78.882812 C 128.375 78.574219 127.699219 78.148438 127.101562 77.605469 C 126.5 77.0625 126.007812 76.433594 125.625 75.71875 C 125.246094 75.003906 124.996094 74.246094 124.878906 73.445312 C 124.761719 72.644531 124.78125 71.847656 124.941406 71.050781 C 125.101562 70.257812 125.390625 69.515625 125.8125 68.824219 C 126.230469 68.128906 126.753906 67.527344 127.386719 67.015625 C 128.015625 66.507812 128.710938 66.117188 129.476562 65.847656 C 130.242188 65.578125 131.027344 65.449219 131.839844 65.453125 L 144.734375 65.453125 C 145.019531 65.410156 145.3125 65.386719 145.601562 65.378906 C 145.894531 65.371094 146.183594 65.378906 146.472656 65.40625 C 146.765625 65.433594 147.050781 65.476562 147.335938 65.539062 C 147.621094 65.597656 147.902344 65.675781 148.179688 65.769531 C 148.453125 65.863281 148.722656 65.972656 148.984375 66.097656 C 149.25 66.222656 149.503906 66.367188 149.75 66.519531 C 149.996094 66.675781 150.230469 66.847656 150.457031 67.03125 C 150.683594 67.214844 150.898438 67.410156 151.097656 67.621094 C 151.300781 67.828125 151.492188 68.050781 151.667969 68.28125 C 151.84375 68.511719 152.003906 68.753906 152.152344 69.003906 C 152.300781 69.253906 152.433594 69.515625 152.550781 69.78125 C 152.667969 70.046875 152.769531 70.320312 152.851562 70.597656 C 152.9375 70.875 153.003906 71.15625 153.054688 71.445312 C 153.109375 71.730469 153.140625 72.019531 153.160156 72.308594 C 153.175781 72.601562 153.175781 72.890625 153.15625 73.179688 C 153.140625 73.472656 153.105469 73.757812 153.050781 74.046875 Z M 153.050781 74.046875 " fill-opacity="1" fill-rule="nonzero"/></g><g fill="#0af8ff" fill-opacity="1"><g transform="translate(238.209302, 173.773236)"><g><path d="M 6.210938 0 L 6.210938 -21.210938 L 1.574219 -21.210938 L 1.574219 0 Z M 6.210938 0 "/></g></g></g><g fill="#0af8ff" fill-opacity="1"><g transform="translate(245.993774, 173.773236)"><g><path d="M 11.058594 -15.910156 C 8.152344 -15.910156 6.453125 -13.726562 6 -12.636719 L 6 -15.757812 L 1.574219 -15.757812 L 1.574219 0 L 6 0 L 6 -9.300781 C 6.152344 -10.300781 7.210938 -12.242188 9.425781 -12.242188 C 11 -12.242188 12.242188 -11.421875 12.242188 -9.242188 L 12.242188 0 L 16.664062 0 L 16.664062 -9.484375 C 16.664062 -14.273438 14.300781 -15.910156 11.058594 -15.910156 Z M 11.058594 -15.910156 "/></g></g></g><g fill="#0af8ff" fill-opacity="1"><g transform="translate(264.228215, 173.773236)"><g><path d="M 11.453125 0 L 17.515625 -15.757812 L 13.089844 -15.757812 L 9.03125 -4.425781 L 4.9375 -15.757812 L 0.515625 -15.757812 L 6.574219 0 Z M 11.453125 0 "/></g></g></g><g fill="#0af8ff" fill-opacity="1"><g transform="translate(282.250611, 173.773236)"><g><path d="M 16.121094 -7.300781 C 16.121094 -13.667969 12.515625 -15.910156 8.605469 -15.910156 C 4.96875 -15.910156 0.816406 -13.667969 0.816406 -7.789062 C 0.816406 -2 5 0.210938 8.574219 0.210938 C 12.394531 0.210938 14.789062 -1.332031 15.695312 -4.515625 L 11.847656 -4.515625 C 11.394531 -3.605469 10.484375 -3.058594 8.816406 -3.058594 C 6.667969 -3.058594 5.425781 -4.058594 5.089844 -6.484375 L 16.089844 -6.484375 C 16.121094 -6.757812 16.121094 -7 16.121094 -7.300781 Z M 5.121094 -9.210938 C 5.453125 -11.515625 6.667969 -12.636719 8.605469 -12.636719 C 10.695312 -12.636719 11.847656 -11.273438 11.910156 -9.210938 Z M 5.121094 -9.210938 "/></g></g></g><g fill="#0af8ff" fill-opacity="1"><g transform="translate(299.182576, 173.773236)"><g><path d="M 10.332031 -10.878906 L 14.300781 -10.878906 C 13.789062 -13.878906 11.789062 -15.910156 7.605469 -15.910156 C 3.574219 -15.910156 1.183594 -14.152344 1.183594 -11.210938 C 1.183594 -9.058594 2.425781 -7.484375 6 -6.695312 L 8.546875 -6.152344 C 9.726562 -5.910156 10.210938 -5.546875 10.210938 -4.726562 C 10.210938 -3.757812 9.425781 -3.058594 7.667969 -3.058594 C 6.03125 -3.058594 5.058594 -3.695312 4.726562 -5.03125 L 0.667969 -5.03125 C 1.121094 -1.546875 3.605469 0.210938 7.636719 0.210938 C 11.636719 0.210938 14.636719 -1.332031 14.636719 -4.667969 C 14.636719 -7.9375 12.605469 -8.332031 9.789062 -8.96875 L 6.96875 -9.605469 C 5.878906 -9.847656 5.304688 -10.300781 5.304688 -11.089844 C 5.304688 -12.089844 6.242188 -12.636719 7.636719 -12.636719 C 9.089844 -12.636719 9.96875 -12.179688 10.332031 -10.878906 Z M 10.332031 -10.878906 "/></g></g></g><g fill="#0af8ff" fill-opacity="1"><g transform="translate(314.478906, 173.773236)"><g><path d="M 9.089844 -3.242188 C 7.816406 -3.242188 7.394531 -3.878906 7.394531 -4.847656 L 7.394531 -12.300781 L 10.574219 -12.300781 L 10.574219 -15.757812 L 7.394531 -15.757812 L 7.394531 -19.695312 L 2.96875 -19.695312 L 2.96875 -15.757812 L 0.363281 -15.757812 L 0.363281 -12.300781 L 2.96875 -12.300781 L 2.96875 -4.363281 C 2.96875 -0.574219 5.121094 0.183594 7.847656 0.183594 C 9.03125 0.183594 10.058594 0 10.726562 -0.273438 L 10.726562 -3.453125 C 10.058594 -3.304688 9.546875 -3.242188 9.089844 -3.242188 Z M 9.089844 -3.242188 "/></g></g></g><g fill="#0af8ff" fill-opacity="1"><g transform="translate(326.019306, 173.773236)"><g><path d="M 20.96875 -15.910156 C 18.394531 -15.910156 16.421875 -14.058594 15.757812 -12.515625 C 14.96875 -14.96875 13.089844 -15.910156 10.816406 -15.910156 C 7.910156 -15.910156 6.425781 -13.726562 6 -12.636719 L 6 -15.757812 L 1.574219 -15.757812 L 1.574219 0 L 6 0 L 6 -9.273438 C 6.089844 -10.394531 7.03125 -12.242188 9.179688 -12.242188 C 10.574219 -12.242188 11.757812 -11.363281 11.757812 -9.089844 L 11.757812 0 L 16.179688 0 L 16.179688 -9.453125 C 16.179688 -10.242188 17.179688 -12.242188 19.363281 -12.242188 C 20.816406 -12.242188 21.96875 -11.363281 21.96875 -9.089844 L 21.96875 0 L 26.394531 0 L 26.394531 -9.179688 C 26.394531 -14.089844 23.9375 -15.910156 20.96875 -15.910156 Z M 20.96875 -15.910156 "/></g></g></g><g fill="#0af8ff" fill-opacity="1"><g transform="translate(353.976741, 173.773236)"><g><path d="M 16.121094 -7.300781 C 16.121094 -13.667969 12.515625 -15.910156 8.605469 -15.910156 C 4.96875 -15.910156 0.816406 -13.667969 0.816406 -7.789062 C 0.816406 -2 5 0.210938 8.574219 0.210938 C 12.394531 0.210938 14.789062 -1.332031 15.695312 -4.515625 L 11.847656 -4.515625 C 11.394531 -3.605469 10.484375 -3.058594 8.816406 -3.058594 C 6.667969 -3.058594 5.425781 -4.058594 5.089844 -6.484375 L 16.089844 -6.484375 C 16.121094 -6.757812 16.121094 -7 16.121094 -7.300781 Z M 5.121094 -9.210938 C 5.453125 -11.515625 6.667969 -12.636719 8.605469 -12.636719 C 10.695312 -12.636719 11.847656 -11.273438 11.910156 -9.210938 Z M 5.121094 -9.210938 "/></g></g></g><g fill="#0af8ff" fill-opacity="1"><g transform="translate(370.908706, 173.773236)"><g><path d="M 11.058594 -15.910156 C 8.152344 -15.910156 6.453125 -13.726562 6 -12.636719 L 6 -15.757812 L 1.574219 -15.757812 L 1.574219 0 L 6 0 L 6 -9.300781 C 6.152344 -10.300781 7.210938 -12.242188 9.425781 -12.242188 C 11 -12.242188 12.242188 -11.421875 12.242188 -9.242188 L 12.242188 0 L 16.664062 0 L 16.664062 -9.484375 C 16.664062 -14.273438 14.300781 -15.910156 11.058594 -15.910156 Z M 11.058594 -15.910156 "/></g></g></g><g fill="#0af8ff" fill-opacity="1"><g transform="translate(389.143147, 173.773236)"><g><path d="M 9.089844 -3.242188 C 7.816406 -3.242188 7.394531 -3.878906 7.394531 -4.847656 L 7.394531 -12.300781 L 10.574219 -12.300781 L 10.574219 -15.757812 L 7.394531 -15.757812 L 7.394531 -19.695312 L 2.96875 -19.695312 L 2.96875 -15.757812 L 0.363281 -15.757812 L 0.363281 -12.300781 L 2.96875 -12.300781 L 2.96875 -4.363281 C 2.96875 -0.574219 5.121094 0.183594 7.847656 0.183594 C 9.03125 0.183594 10.058594 0 10.726562 -0.273438 L 10.726562 -3.453125 C 10.058594 -3.304688 9.546875 -3.242188 9.089844 -3.242188 Z M 9.089844 -3.242188 "/></g></g></g><g fill="#0af8ff" fill-opacity="1"><g transform="translate(400.683548, 173.773236)"><g/></g></g><g fill="#0af8ff" fill-opacity="1"><g transform="translate(408.770905, 173.773236)"><g><path d="M 21.152344 0 L 17.421875 -4.03125 C 18.542969 -5.816406 19.332031 -8.152344 19.574219 -11.152344 L 15.574219 -11.152344 C 15.542969 -9.574219 15.179688 -8.179688 14.636719 -7.058594 L 11.058594 -10.910156 C 13.695312 -12.332031 15.152344 -14.03125 15.152344 -16.453125 C 15.152344 -19.152344 13.453125 -21.636719 9.332031 -21.636719 C 5.058594 -21.636719 3.394531 -19.152344 3.394531 -16.453125 C 3.394531 -14.757812 4.242188 -13.242188 5.605469 -11.574219 C 3.695312 -10.636719 1.121094 -9.179688 1.121094 -6.058594 C 1.121094 -1.816406 5.03125 0.363281 9.242188 0.363281 C 11.300781 0.363281 13.273438 -0.183594 14.9375 -1.394531 L 16.242188 0 Z M 9.332031 -18.394531 C 10.726562 -18.394531 11.453125 -17.453125 11.453125 -16.363281 C 11.453125 -15.484375 11.121094 -14.484375 8.878906 -13.273438 C 7.574219 -14.726562 7.058594 -15.453125 7.058594 -16.363281 C 7.058594 -17.421875 7.816406 -18.394531 9.332031 -18.394531 Z M 9.273438 -3.425781 C 7.242188 -3.425781 5.910156 -4.636719 5.910156 -6.152344 C 5.910156 -6.910156 6.210938 -8.058594 7.789062 -9.089844 L 12.210938 -4.332031 C 11.300781 -3.726562 10.273438 -3.425781 9.273438 -3.425781 Z M 9.273438 -3.425781 "/></g></g></g><g fill="#0af8ff" fill-opacity="1"><g transform="translate(430.73098, 173.773236)"><g/></g></g><g fill="#0af8ff" fill-opacity="1"><g transform="translate(438.818338, 173.773236)"><g><path d="M 17.515625 -21.210938 L 0.667969 -21.210938 L 0.667969 -17.210938 L 6.789062 -17.210938 L 6.789062 0 L 11.421875 0 L 11.421875 -17.210938 L 17.515625 -17.210938 Z M 17.515625 -21.210938 "/></g></g></g><g fill="#0af8ff" fill-opacity="1"><g transform="translate(456.992189, 173.773236)"><g><path d="M 10.695312 -15.910156 C 8 -15.910156 6.453125 -14.394531 6 -12.273438 L 6 -15.757812 L 1.574219 -15.757812 L 1.574219 0 L 6 0 L 6 -8.394531 C 6.363281 -10.574219 7.789062 -11.9375 11.03125 -11.9375 C 11.242188 -11.9375 11.453125 -11.9375 12.058594 -11.910156 L 12.058594 -15.789062 C 11.453125 -15.910156 11.03125 -15.910156 10.695312 -15.910156 Z M 10.695312 -15.910156 "/></g></g></g><g fill="#0af8ff" fill-opacity="1"><g transform="translate(469.713884, 173.773236)"><g><path d="M 15.300781 -4.089844 L 15.300781 -9.300781 C 15.300781 -13.9375 13.394531 -15.910156 8.425781 -15.910156 C 4.242188 -15.910156 2 -14.210938 1.695312 -10.910156 L 5.878906 -10.910156 C 6.089844 -12.300781 7.152344 -12.667969 8.394531 -12.667969 C 9.484375 -12.667969 10.878906 -12.421875 10.878906 -10.363281 L 10.878906 -10.332031 C 10 -9.816406 8.363281 -9.667969 6.636719 -9.332031 C 3.757812 -8.816406 0.816406 -8.210938 0.816406 -4.636719 C 0.816406 -1.152344 3.425781 0.210938 6.179688 0.210938 C 9.878906 0.210938 11.121094 -2.121094 11.363281 -2.515625 L 11.363281 -2.394531 C 11.363281 -0.695312 12.910156 0.121094 14.847656 0.121094 C 15.484375 0.121094 15.910156 0.0898438 16.453125 -0.152344 L 16.453125 -2.667969 C 15.726562 -2.726562 15.300781 -3.152344 15.300781 -4.089844 Z M 10.878906 -4.96875 C 10.574219 -4.425781 9.484375 -2.9375 7.394531 -2.9375 C 5.878906 -2.9375 5.242188 -3.847656 5.242188 -4.816406 C 5.242188 -5.816406 5.816406 -6.394531 7.300781 -6.757812 C 8.726562 -7.058594 9.757812 -7.179688 10.878906 -7.757812 Z M 10.878906 -4.96875 "/></g></g></g><g fill="#0af8ff" fill-opacity="1"><g transform="translate(486.676144, 173.773236)"><g><path d="M 7.757812 -15.910156 C 4.878906 -15.910156 0.816406 -13.667969 0.816406 -7.878906 C 0.816406 -1.96875 4.910156 0.210938 7.847656 0.210938 C 10.878906 0.210938 12.058594 -2.03125 12.058594 -2.394531 L 12.058594 0 L 16.484375 0 L 16.484375 -21.394531 L 12.058594 -21.394531 L 12.058594 -13.757812 C 11.546875 -14.667969 9.96875 -15.910156 7.757812 -15.910156 Z M 8.726562 -3.363281 C 6.695312 -3.363281 5.089844 -4.726562 5.089844 -7.878906 C 5.089844 -11 6.695312 -12.332031 8.726562 -12.332031 C 10.667969 -12.332031 12.242188 -10.910156 12.242188 -7.878906 C 12.242188 -4.816406 10.667969 -3.363281 8.726562 -3.363281 Z M 8.726562 -3.363281 "/></g></g></g><g fill="#0af8ff" fill-opacity="1"><g transform="translate(504.728836, 173.773236)"><g><path d="M 1.574219 -21.484375 L 1.574219 -18.121094 L 6 -18.121094 L 6 -21.484375 Z M 1.574219 -15.757812 L 1.574219 0 L 6 0 L 6 -15.757812 Z M 1.574219 -15.757812 "/></g></g></g><g fill="#0af8ff" fill-opacity="1"><g transform="translate(512.301284, 173.773236)"><g><path d="M 11.058594 -15.910156 C 8.152344 -15.910156 6.453125 -13.726562 6 -12.636719 L 6 -15.757812 L 1.574219 -15.757812 L 1.574219 0 L 6 0 L 6 -9.300781 C 6.152344 -10.300781 7.210938 -12.242188 9.425781 -12.242188 C 11 -12.242188 12.242188 -11.421875 12.242188 -9.242188 L 12.242188 0 L 16.664062 0 L 16.664062 -9.484375 C 16.664062 -14.273438 14.300781 -15.910156 11.058594 -15.910156 Z M 11.058594 -15.910156 "/></g></g></g><g fill="#0af8ff" fill-opacity="1"><g transform="translate(530.535725, 173.773236)"><g><path d="M 11.9375 -15.847656 L 11.9375 -13.757812 C 11.394531 -14.667969 9.847656 -15.910156 7.636719 -15.910156 C 4.847656 -15.910156 0.816406 -13.667969 0.816406 -7.878906 C 0.816406 -2 4.878906 0.183594 7.695312 0.183594 C 10.757812 0.183594 11.9375 -2.03125 11.9375 -2.394531 L 11.9375 -0.425781 C 11.9375 2.058594 10.789062 3.058594 8.152344 3.058594 C 5.9375 3.058594 4.9375 2.152344 4.304688 1.453125 L 1.574219 3.183594 C 2.636719 5.273438 5.210938 6.667969 8.574219 6.667969 C 11.574219 6.667969 16.363281 5.546875 16.363281 -0.425781 L 16.363281 -15.847656 Z M 8.667969 -3.394531 C 6.757812 -3.394531 5.210938 -4.757812 5.210938 -7.878906 C 5.210938 -11 6.757812 -12.332031 8.667969 -12.332031 C 10.605469 -12.332031 12.121094 -10.910156 12.121094 -7.878906 C 12.121094 -4.816406 10.605469 -3.394531 8.667969 -3.394531 Z M 8.667969 -3.394531 "/></g></g></g><g fill="#0af8ff" fill-opacity="1"><g transform="translate(548.467258, 173.773236)"><g/></g></g><g fill="#0af8ff" fill-opacity="1"><g transform="translate(556.554616, 173.773236)"><g><path d="M 11 -3.726562 C 7.757812 -3.726562 5.96875 -6.394531 5.96875 -10.605469 C 5.96875 -14.847656 7.757812 -17.484375 11 -17.484375 C 13.273438 -17.484375 14.300781 -16.515625 15.089844 -14.453125 L 19.664062 -14.453125 C 19.152344 -19.179688 15.300781 -21.484375 10.910156 -21.484375 C 5.089844 -21.484375 1.121094 -17.636719 1.121094 -10.605469 C 1.121094 -3.574219 5.089844 0.273438 10.910156 0.273438 C 15.332031 0.273438 19.210938 -2.03125 19.726562 -6.789062 L 15.121094 -6.789062 C 14.363281 -4.695312 13.300781 -3.726562 11 -3.726562 Z M 11 -3.726562 "/></g></g></g><g fill="#0af8ff" fill-opacity="1"><g transform="translate(577.181941, 173.773236)"><g><path d="M 8.636719 -15.910156 C 5.304688 -15.910156 0.816406 -13.695312 0.816406 -7.816406 C 0.816406 -2 5.304688 0.210938 8.636719 0.210938 C 11.96875 0.210938 16.453125 -2 16.453125 -7.816406 C 16.453125 -13.695312 11.96875 -15.910156 8.636719 -15.910156 Z M 12.210938 -7.816406 C 12.210938 -4.726562 10.515625 -3.363281 8.636719 -3.363281 C 6.757812 -3.363281 5.058594 -4.726562 5.058594 -7.816406 C 5.058594 -11.058594 6.757812 -12.332031 8.636719 -12.332031 C 10.515625 -12.332031 12.210938 -11.058594 12.210938 -7.816406 Z M 12.210938 -7.816406 "/></g></g></g><g fill="#0af8ff" fill-opacity="1"><g transform="translate(594.44711, 173.773236)"><g><path d="M 1.515625 -5.03125 L 1.515625 0 L 6.304688 0 L 6.304688 -5.03125 Z M 1.515625 -5.03125 "/></g></g></g><g fill="#ffffff" fill-opacity="1"><g transform="translate(199.135094, 139.226474)"><g><path d="M 3.625 -48.773438 L 3.625 0 L 14.285156 0 L 14.285156 -30.867188 L 14.632812 -30.867188 L 25.640625 0 L 33.445312 0 L 44.523438 -30.867188 L 44.871094 -30.867188 L 44.871094 0 L 55.53125 0 L 55.53125 -48.773438 L 43.199219 -48.773438 L 29.542969 -14.144531 L 15.957031 -48.773438 Z M 3.625 -48.773438 "/></g></g></g><g fill="#ffffff" fill-opacity="1"><g transform="translate(258.27836, 139.226474)"><g><path d="M 37.066406 -16.792969 C 37.066406 -31.425781 28.777344 -36.582031 19.789062 -36.582031 C 11.425781 -36.582031 1.882812 -31.425781 1.882812 -17.90625 C 1.882812 -4.597656 11.496094 0.488281 19.71875 0.488281 C 28.496094 0.488281 34.003906 -3.066406 36.09375 -10.382812 L 27.242188 -10.382812 C 26.199219 -8.292969 24.109375 -7.039062 20.277344 -7.039062 C 15.328125 -7.039062 12.472656 -9.335938 11.707031 -14.910156 L 37 -14.910156 C 37.066406 -15.539062 37.066406 -16.09375 37.066406 -16.792969 Z M 11.773438 -21.183594 C 12.542969 -26.476562 15.328125 -29.054688 19.789062 -29.054688 C 24.597656 -29.054688 27.242188 -25.917969 27.382812 -21.183594 Z M 11.773438 -21.183594 "/></g></g></g><g fill="#ffffff" fill-opacity="1"><g transform="translate(297.219563, 139.226474)"><g><path d="M 25.433594 -36.582031 C 18.742188 -36.582031 14.839844 -31.5625 13.796875 -29.054688 L 13.796875 -36.230469 L 3.625 -36.230469 L 3.625 0 L 13.796875 0 L 13.796875 -21.390625 C 14.144531 -23.691406 16.582031 -28.148438 21.667969 -28.148438 C 25.292969 -28.148438 28.148438 -26.269531 28.148438 -21.25 L 28.148438 0 L 38.320312 0 L 38.320312 -21.808594 C 38.320312 -32.816406 32.886719 -36.582031 25.433594 -36.582031 Z M 25.433594 -36.582031 "/></g></g></g><g fill="#ffffff" fill-opacity="1"><g transform="translate(339.15625, 139.226474)"><g><path d="M 17.835938 -36.582031 C 11.21875 -36.582031 1.882812 -31.425781 1.882812 -18.117188 C 1.882812 -4.527344 11.289062 0.488281 18.046875 0.488281 C 25.015625 0.488281 27.730469 -4.667969 27.730469 -5.503906 L 27.730469 0 L 37.902344 0 L 37.902344 -49.191406 L 27.730469 -49.191406 L 27.730469 -31.632812 C 26.546875 -33.722656 22.921875 -36.582031 17.835938 -36.582031 Z M 20.066406 -7.734375 C 15.398438 -7.734375 11.707031 -10.871094 11.707031 -18.117188 C 11.707031 -25.292969 15.398438 -28.359375 20.066406 -28.359375 C 24.527344 -28.359375 28.148438 -25.082031 28.148438 -18.117188 C 28.148438 -11.078125 24.527344 -7.734375 20.066406 -7.734375 Z M 20.066406 -7.734375 "/></g></g></g><g fill="#ffffff" fill-opacity="1"><g transform="translate(380.674957, 139.226474)"><g><path d="M 37.066406 -16.792969 C 37.066406 -31.425781 28.777344 -36.582031 19.789062 -36.582031 C 11.425781 -36.582031 1.882812 -31.425781 1.882812 -17.90625 C 1.882812 -4.597656 11.496094 0.488281 19.71875 0.488281 C 28.496094 0.488281 34.003906 -3.066406 36.09375 -10.382812 L 27.242188 -10.382812 C 26.199219 -8.292969 24.109375 -7.039062 20.277344 -7.039062 C 15.328125 -7.039062 12.472656 -9.335938 11.707031 -14.910156 L 37 -14.910156 C 37.066406 -15.539062 37.066406 -16.09375 37.066406 -16.792969 Z M 11.773438 -21.183594 C 12.542969 -26.476562 15.328125 -29.054688 19.789062 -29.054688 C 24.597656 -29.054688 27.242188 -25.917969 27.382812 -21.183594 Z M 11.773438 -21.183594 "/></g></g></g><g fill="#ffffff" fill-opacity="1"><g transform="translate(419.61616, 139.226474)"><g><path d="M 14.910156 -8.5 L 32.746094 -27.730469 L 32.746094 -36.230469 L 3.484375 -36.230469 L 3.484375 -27.730469 L 20.554688 -27.730469 L 2.785156 -8.5 L 2.785156 0 L 32.746094 0 L 32.746094 -8.5 Z M 14.910156 -8.5 "/></g></g></g><g fill="#0af8ff" fill-opacity="1"><g transform="translate(455.127369, 139.226474)"><g/></g></g><g fill="#0af8ff" fill-opacity="1"><g transform="translate(473.727189, 139.226474)"><g><path d="M 34.003906 -26.824219 C 37.207031 -28.289062 40.0625 -31.632812 40.0625 -36.160156 C 40.0625 -43.6875 34.699219 -48.773438 23.757812 -48.773438 L 3.625 -48.773438 L 3.625 0 L 24.527344 0 C 37.277344 0 43.269531 -5.503906 43.269531 -14.492188 C 43.269531 -19.996094 39.714844 -25.082031 34.003906 -26.824219 Z M 14.285156 -39.996094 L 23.898438 -39.996094 C 26.40625 -39.996094 28.914062 -38.601562 28.914062 -35.117188 C 28.914062 -32.261719 27.105469 -29.75 23.621094 -29.75 L 14.285156 -29.75 Z M 24.175781 -8.777344 L 14.285156 -8.777344 L 14.285156 -21.667969 L 24.527344 -21.667969 C 30.308594 -21.667969 31.84375 -17.976562 31.84375 -14.980469 C 31.84375 -11.707031 29.820312 -8.777344 24.175781 -8.777344 Z M 24.175781 -8.777344 "/></g></g></g><g fill="#0af8ff" fill-opacity="1"><g transform="translate(519.913283, 139.226474)"><g><path d="M 35.1875 -9.40625 L 35.1875 -21.390625 C 35.1875 -32.050781 30.796875 -36.582031 19.371094 -36.582031 C 9.753906 -36.582031 4.597656 -32.679688 3.902344 -25.082031 L 13.515625 -25.082031 C 14.003906 -28.289062 16.445312 -29.125 19.300781 -29.125 C 21.808594 -29.125 25.015625 -28.566406 25.015625 -23.828125 L 25.015625 -23.757812 C 22.992188 -22.574219 19.230469 -22.226562 15.257812 -21.460938 C 8.640625 -20.277344 1.882812 -18.882812 1.882812 -10.660156 C 1.882812 -2.648438 7.875 0.488281 14.214844 0.488281 C 22.714844 0.488281 25.570312 -4.878906 26.128906 -5.78125 L 26.128906 -5.503906 C 26.128906 -1.601562 29.683594 0.277344 34.140625 0.277344 C 35.605469 0.277344 36.582031 0.210938 37.835938 -0.347656 L 37.835938 -6.132812 C 36.160156 -6.269531 35.1875 -7.246094 35.1875 -9.40625 Z M 25.015625 -11.425781 C 24.316406 -10.171875 21.808594 -6.757812 17 -6.757812 C 13.515625 -6.757812 12.054688 -8.847656 12.054688 -11.078125 C 12.054688 -13.378906 13.378906 -14.703125 16.792969 -15.539062 C 20.066406 -16.234375 22.4375 -16.511719 25.015625 -17.835938 Z M 25.015625 -11.425781 "/></g></g></g><g fill="#0af8ff" fill-opacity="1"><g transform="translate(558.924145, 139.226474)"><g><path d="M 25.433594 -36.582031 C 18.742188 -36.582031 14.839844 -31.5625 13.796875 -29.054688 L 13.796875 -36.230469 L 3.625 -36.230469 L 3.625 0 L 13.796875 0 L 13.796875 -21.390625 C 14.144531 -23.691406 16.582031 -28.148438 21.667969 -28.148438 C 25.292969 -28.148438 28.148438 -26.269531 28.148438 -21.25 L 28.148438 0 L 38.320312 0 L 38.320312 -21.808594 C 38.320312 -32.816406 32.886719 -36.582031 25.433594 -36.582031 Z M 25.433594 -36.582031 "/></g></g></g><g fill="#0af8ff" fill-opacity="1"><g transform="translate(600.860833, 139.226474)"><g><path d="M 28.914062 0 L 39.996094 0 L 23.273438 -20.972656 L 37.972656 -36.230469 L 26.476562 -36.230469 L 13.796875 -22.855469 L 13.796875 -49.191406 L 3.625 -49.191406 L 3.625 0 L 13.796875 0 L 13.796875 -11.21875 L 17 -14.492188 Z M 28.914062 0 "/></g></g></g></svg>